<svg viewBox="0 0 200 200" xmlns="http://www.w3.org/2000/svg">
  <path fill="#aaf1cc" d="M62.2,-25.9C68.2,-1.8,52,23.8,31.2,37.7C10.4,51.6,-15.1,53.8,-33.5,41.5C-51.9,29.2,-63.1,2.5,-56.3,-22.7C-49.6,-47.9,-24.8,-71.6,1.7,-72.1C28.1,-72.7,56.2,-50,62.2,-25.9Z" transform="translate(180 80) scale(0.5)" />
  <path fill="#f7bb82" d="M24.8,-41.9C34.9,-37.1,47.9,-36.1,51.5,-29.8C55.1,-23.4,49.3,-11.7,52.7,1.9C56,15.6,68.4,31.1,68.5,43.9C68.7,56.7,56.5,66.7,43,74C29.5,81.4,14.8,86,2.1,82.4C-10.5,78.8,-21.1,66.8,-34.1,59.2C-47.2,51.6,-62.7,48.4,-72.7,39.2C-82.8,30.1,-87.4,15,-81.1,3.7C-74.7,-7.7,-57.4,-15.4,-46.6,-23.3C-35.8,-31.1,-31.4,-39,-24.8,-45.8C-18.1,-52.6,-9,-58.3,-0.9,-56.8C7.3,-55.3,14.6,-46.7,24.8,-41.9Z" transform="translate(15 20) scale(0.25)" />
  <path fill="#74e7da" d="M61.8,-0.1C61.8,29.4,30.9,58.7,-0.3,58.7C-31.4,58.7,-62.9,29.4,-62.9,-0.1C-62.9,-29.6,-31.4,-59.3,-0.3,-59.3C30.9,-59.3,61.8,-29.6,61.8,-0.1Z" transform="translate(30 140) scale(0.35)" />
</svg>